REM DIRINDEX 1\8,1\2\11,1\3\12,1\3\14,1\5\15,1\5\16,1\6\17,1\6\18,1\4\19,1\4\20,1\4\21,1\4\22,1\7\23,1\7\24,1\7\25,1\2\9\26,1\2\9\27,1\2\10\28,1\2\10\29,1\2\10\30,1\2\10\31,1\2\10\32,1\3\13\33,1\3\13\34,1\3\13\35
REM DIRNAME folder01,folder02,folder03,folder04,folder05,folder06,folder07,folder08,folder09,folder10,folder11,folder12,folder13,folder14,folder15,folder16,folder17,folder18,folder19,folder20,folder21,folder22,folder23,folder24,folder25,folder26,folder27,folder28,folder29,folder30,folder31,folder32,folder33,folder34,folder35
TITLE ""
FILE "105 105_UNIT5_SET3.mp3" MP3
  TRACK 01 AUDIO
    TITLE "14:cjc123_1818"
    INDEX 01 00:00:00
  TRACK 02 AUDIO
    TITLE "0:"
    INDEX 01 00:02:55
  TRACK 03 AUDIO
    TITLE "33:cjc123_1819"
    INDEX 01 00:03:29
  TRACK 04 AUDIO
    TITLE "0:"
    INDEX 01 00:04:35
  TRACK 05 AUDIO
    TITLE "34:cjc123_1820"
    INDEX 01 00:04:54
  TRACK 06 AUDIO
    TITLE "0:"
    INDEX 01 00:05:67
  TRACK 07 AUDIO
    TITLE "35:cjc123_1821"
    INDEX 01 00:06:37
  TRACK 08 AUDIO
    TITLE "0:"
    INDEX 01 00:10:61
  TRACK 09 AUDIO
    TITLE "33:cjc123_1822"
    INDEX 01 00:11:42
  TRACK 10 AUDIO
    TITLE "0:"
    INDEX 01 00:12:61
  TRACK 11 AUDIO
    TITLE "34:cjc123_1823"
    INDEX 01 00:13:06
  TRACK 12 AUDIO
    TITLE "0:"
    INDEX 01 00:14:19
  TRACK 13 AUDIO
    TITLE "35:cjc123_1824"
    INDEX 01 00:14:68
  TRACK 14 AUDIO
    TITLE "0:"
    INDEX 01 00:22:05
  TRACK 15 AUDIO
    TITLE "33:cjc123_1825"
    INDEX 01 00:22:50
  TRACK 16 AUDIO
    TITLE "0:"
    INDEX 01 00:23:61
  TRACK 17 AUDIO
    TITLE "34:cjc123_1826"
    INDEX 01 00:24:06
  TRACK 18 AUDIO
    TITLE "0:"
    INDEX 01 00:25:19
  TRACK 19 AUDIO
    TITLE "35:cjc123_1827"
    INDEX 01 00:25:70
  TRACK 20 AUDIO
    TITLE "0:"
    INDEX 01 00:32:17
  TRACK 21 AUDIO
    TITLE "33:cjc123_1828"
    INDEX 01 00:32:68
  TRACK 22 AUDIO
    TITLE "0:"
    INDEX 01 00:33:68
  TRACK 23 AUDIO
    TITLE "34:cjc123_1829"
    INDEX 01 00:34:22
  TRACK 24 AUDIO
    TITLE "0:"
    INDEX 01 00:35:37
  TRACK 25 AUDIO
    TITLE "35:cjc123_1830"
    INDEX 01 00:36:09
  TRACK 26 AUDIO
    TITLE "0:"
    INDEX 01 00:40:11
  TRACK 27 AUDIO
    TITLE "33:cjc123_1831"
    INDEX 01 00:40:60
  TRACK 28 AUDIO
    TITLE "0:"
    INDEX 01 00:42:04
  TRACK 29 AUDIO
    TITLE "34:cjc123_1832"
    INDEX 01 00:42:29
  TRACK 30 AUDIO
    TITLE "0:"
    INDEX 01 00:43:46
  TRACK 31 AUDIO
    TITLE "35:cjc123_1833"
    INDEX 01 00:44:26
  TRACK 32 AUDIO
    TITLE "0:"
    INDEX 01 00:50:46
  TRACK 33 AUDIO
    TITLE "33:cjc123_1834"
    INDEX 01 00:51:26
  TRACK 34 AUDIO
    TITLE "0:"
    INDEX 01 00:52:41
  TRACK 35 AUDIO
    TITLE "34:cjc123_1835"
    INDEX 01 00:52:63
  TRACK 36 AUDIO
    TITLE "0:"
    INDEX 01 00:53:70
  TRACK 37 AUDIO
    TITLE "35:cjc123_1836"
    INDEX 01 00:54:42
  TRACK 38 AUDIO
    TITLE "0:"
    INDEX 01 00:59:73
  TRACK 39 AUDIO
    TITLE "33:cjc123_1837"
    INDEX 01 01:00:57
  TRACK 40 AUDIO
    TITLE "0:"
    INDEX 01 01:02:01
  TRACK 41 AUDIO
    TITLE "34:cjc123_1838"
    INDEX 01 01:02:30
  TRACK 42 AUDIO
    TITLE "0:"
    INDEX 01 01:03:47
  TRACK 43 AUDIO
    TITLE "35:cjc123_1839"
    INDEX 01 01:04:21
  TRACK 44 AUDIO
    TITLE "0:"
    INDEX 01 01:09:40
  TRACK 45 AUDIO
    TITLE "33:cjc123_1840"
    INDEX 01 01:10:20
  TRACK 46 AUDIO
    TITLE "0:"
    INDEX 01 01:11:17
  TRACK 47 AUDIO
    TITLE "34:cjc123_1841"
    INDEX 01 01:11:51
  TRACK 48 AUDIO
    TITLE "0:"
    INDEX 01 01:12:56
  TRACK 49 AUDIO
    TITLE "35:cjc123_1842"
    INDEX 01 01:13:30
  TRACK 50 AUDIO
    TITLE "0:"
    INDEX 01 01:18:70
  TRACK 51 AUDIO
    TITLE "33:cjc123_1843"
    INDEX 01 01:19:44
  TRACK 52 AUDIO
    TITLE "0:"
    INDEX 01 01:20:71
  TRACK 53 AUDIO
    TITLE "34:cjc123_1844"
    INDEX 01 01:21:20
  TRACK 54 AUDIO
    TITLE "0:"
    INDEX 01 01:22:35
  TRACK 55 AUDIO
    TITLE "35:cjc123_1845"
    INDEX 01 01:23:07
  TRACK 56 AUDIO
    TITLE "0:"
    INDEX 01 01:28:24
  TRACK 57 AUDIO
    TITLE "33:cjc123_1846"
    INDEX 01 01:28:71
  TRACK 58 AUDIO
    TITLE "0:"
    INDEX 01 01:29:74
  TRACK 59 AUDIO
    TITLE "34:cjc123_1847"
    INDEX 01 01:30:34
  TRACK 60 AUDIO
    TITLE "0:"
    INDEX 01 01:31:22
  TRACK 61 AUDIO
    TITLE "35:cjc123_1848"
    INDEX 01 01:32:04
  TRACK 62 AUDIO
    TITLE "0:"
    INDEX 01 01:38:22
  TRACK 63 AUDIO
    TITLE "33:cjc123_1849"
    INDEX 01 01:39:02
  TRACK 64 AUDIO
    TITLE "0:"
    INDEX 01 01:40:13
  TRACK 65 AUDIO
    TITLE "34:cjc123_1850"
    INDEX 01 01:40:40
  TRACK 66 AUDIO
    TITLE "0:"
    INDEX 01 01:41:56
  TRACK 67 AUDIO
    TITLE "35:cjc123_1851"
    INDEX 01 01:42:31
  TRACK 68 AUDIO
    TITLE "0:"
    INDEX 01 01:48:67
  TRACK 69 AUDIO
    TITLE "33:cjc123_1852"
    INDEX 01 01:49:57
  TRACK 70 AUDIO
    TITLE "0:"
    INDEX 01 01:50:62
  TRACK 71 AUDIO
    TITLE "34:cjc123_1853"
    INDEX 01 01:51:17
  TRACK 72 AUDIO
    TITLE "0:"
    INDEX 01 01:52:16
  TRACK 73 AUDIO
    TITLE "35:cjc123_1854"
    INDEX 01 01:52:61
  TRACK 74 AUDIO
    TITLE "0:"
    INDEX 01 01:58:27
  TRACK 75 AUDIO
    TITLE "33:cjc123_1855"
    INDEX 01 01:59:10
  TRACK 76 AUDIO
    TITLE "0:"
    INDEX 01 02:00:10
  TRACK 77 AUDIO
    TITLE "34:cjc123_1856"
    INDEX 01 02:00:27
  TRACK 78 AUDIO
    TITLE "0:"
    INDEX 01 02:01:37
  TRACK 79 AUDIO
    TITLE "35:cjc123_1857"
    INDEX 01 02:02:09
  TRACK 80 AUDIO
    TITLE "0:"
    INDEX 01 02:07:29
  TRACK 81 AUDIO
    TITLE "33:cjc123_1858"
    INDEX 01 02:08:13
  TRACK 82 AUDIO
    TITLE "0:"
    INDEX 01 02:09:19
  TRACK 83 AUDIO
    TITLE "34:cjc123_1859"
    INDEX 01 02:09:42
  TRACK 84 AUDIO
    TITLE "0:"
    INDEX 01 02:10:43
  TRACK 85 AUDIO
    TITLE "35:cjc123_1860"
    INDEX 01 02:11:23
  TRACK 86 AUDIO
    TITLE "0:"
    INDEX 01 02:18:19
  TRACK 87 AUDIO
    TITLE "33:cjc123_1861"
    INDEX 01 02:18:74
  TRACK 88 AUDIO
    TITLE "0:"
    INDEX 01 02:20:07
  TRACK 89 AUDIO
    TITLE "34:cjc123_1862"
    INDEX 01 02:20:18
  TRACK 90 AUDIO
    TITLE "0:"
    INDEX 01 02:21:30
  TRACK 91 AUDIO
    TITLE "35:cjc123_1863"
    INDEX 01 02:22:04
  TRACK 92 AUDIO
    TITLE "0:"
    INDEX 01 02:26:56
